<?xml version="1.0" encoding="UTF-8" standalone="no"?>
<svg
   xmlns:dc="http://purl.org/dc/elements/1.1/"
   xmlns:cc="http://creativecommons.org/ns#"
   xmlns:rdf="http://www.w3.org/1999/02/22-rdf-syntax-ns#"
   xmlns:svg="http://www.w3.org/2000/svg"
   xmlns="http://www.w3.org/2000/svg"
   viewBox="0 0 666.66669 666.66669"
   height="666.66669"
   width="666.66669"
   xml:space="preserve"
   id="svg2"
   version="1.1"><metadata
     id="metadata8"><rdf:RDF><cc:Work
         rdf:about=""><dc:format>image/svg+xml</dc:format><dc:type
           rdf:resource="http://purl.org/dc/dcmitype/StillImage" /></cc:Work></rdf:RDF></metadata><defs
     id="defs6"><clipPath
       id="clipPath30"
       clipPathUnits="userSpaceOnUse"><path
         id="path28"
         d="M 0,500 H 500 V 0 H 0 Z" /></clipPath><linearGradient
       id="linearGradient40"
       spreadMethod="pad"
       gradientTransform="matrix(215.903,0,0,215.903,-213.4038,500.0003)"
       gradientUnits="userSpaceOnUse"
       y2="0"
       x2="1"
       y1="0"
       x1="0"><stop
         id="stop34"
         offset="0"
         style="stop-opacity:1;stop-color:#ff67c5" /><stop
         id="stop36"
         offset="0.46016854"
         style="stop-opacity:1;stop-color:#ff67c5" /><stop
         id="stop38"
         offset="1"
         style="stop-opacity:1;stop-color:#311fff" /></linearGradient><linearGradient
       id="linearGradient62"
       spreadMethod="pad"
       gradientTransform="matrix(190.90189,0,0,-190.90189,155.729,288.50934)"
       gradientUnits="userSpaceOnUse"
       y2="0"
       x2="1"
       y1="0"
       x1="0"><stop
         id="stop56"
         offset="0"
         style="stop-opacity:1;stop-color:#ff67c5" /><stop
         id="stop58"
         offset="0.46016854"
         style="stop-opacity:1;stop-color:#ff67c5" /><stop
         id="stop60"
         offset="1"
         style="stop-opacity:1;stop-color:#311fff" /></linearGradient></defs><g
     transform="matrix(1.3333333,0,0,-1.3333333,0,666.66667)"
     id="g10"><g
       transform="translate(0,500.0004)"
       id="g12"><path
         id="path14"
         style="fill:#040f28;fill-opacity:1;fill-rule:nonzero;stroke:none"
         d="M 0,0 V -341.201 -500 H 500 V 0 Z" /></g><text
       id="text18"
       style="font-variant:normal;font-weight:300;font-stretch:normal;font-size:11.60949993px;font-family:'Montserrat Light';-inkscape-font-specification:Montserrat-Light;writing-mode:lr-tb;fill:#b669ff;fill-opacity:1;fill-rule:nonzero;stroke:none"
       transform="matrix(1,0,0,-1,158.3647,122.0225)"><tspan
         id="tspan16"
         y="0"
         x="0 16.381004 31.670715 50.199478 68.229034 85.852249 104.36941 117.13985 135.6454 152.49078 170.17206">SLOGAN HERE</tspan></text>
<text
       id="text22"
       style="font-variant:normal;font-weight:900;font-stretch:normal;font-size:25.73620033px;font-family:'Montserrat Black';-inkscape-font-specification:Montserrat-Black;writing-mode:lr-tb;fill:#ffffff;fill-opacity:1;fill-rule:nonzero;stroke:none"
       transform="matrix(1,0,0,-1,126.918,146.5225)"><tspan
         id="tspan20"
         y="0"
         x="0 27.820831 56.104916 72.370193 98.749802 114.19152 139.00122 167.28529 190.0361 218.34592">HAIR SALON</tspan></text>
<g
       id="g24"><g
         clip-path="url(#clipPath30)"
         id="g26"><g
           transform="translate(356.6318,288.5093)"
           id="g32"><path
             id="path42"
             style="fill:none;stroke:url(#linearGradient40);stroke-width:5;stroke-linecap:round;stroke-linejoin:round;stroke-miterlimit:10;stroke-dasharray:none;stroke-opacity:1"
             d="m 0,0 c 0,-58.24 -47.213,-105.452 -105.452,-105.452 -58.239,0 -105.452,47.212 -105.452,105.452 0,58.239 47.213,105.452 105.452,105.452 C -47.213,105.452 0,58.239 0,0 Z" /></g></g></g><g
       id="g44"><g
         id="g46"><g
           id="g52"><g
             id="g54"><path
               id="path64"
               style="fill:url(#linearGradient62);stroke:none"
               d="m 155.729,288.509 c 0,-11.365 2,-22.27 5.661,-32.388 v 0 c 0.042,-0.153 0.092,-0.302 0.16,-0.448 v 0 c 7.158,-19.478 20.498,-35.992 37.624,-47.165 v 0 c 0.214,-0.181 0.441,-0.337 0.687,-0.449 v 0 c 14.829,-9.492 32.442,-15 51.319,-15 v 0 c 28.877,0 54.797,12.89 72.315,33.218 v 0 c 0.25,0.216 0.466,0.464 0.628,0.743 v 0 c 14.034,16.622 22.507,38.082 22.507,61.489 v 0 c 0,17.809 -4.907,34.491 -13.433,48.774 v 0 c -0.096,0.224 -0.221,0.437 -0.378,0.637 v 0 c -16.753,27.578 -47.081,46.041 -81.639,46.041 v 0 c -52.632,0 -95.451,-42.82 -95.451,-95.452 m 5.861,0 c 0,49.4 40.19,89.59 89.59,89.59 v 0 c 23.778,0 45.42,-9.315 61.476,-24.484 v 0 c -13.177,7.506 -31.804,13.514 -52.676,6.47 v 0 c -22.538,-7.607 -37.131,-20.003 -40.036,-34.01 v 0 c -1.324,-6.378 -0.095,-12.506 3.47,-17.756 v 0 c -6.374,-0.702 -16.226,-3.196 -24.141,-11.441 v 0 c -8.928,-9.298 -11.011,-21.538 -11.46,-28.009 v 0 c -4.69,1.171 -12.687,1.198 -22.251,-6.763 v 0 c -2.579,8.35 -3.972,17.217 -3.972,26.403 m 70.785,15.903 c 0.504,1.155 0.213,2.502 -0.722,3.347 v 0 c -5.172,4.671 -7.292,10.754 -5.971,17.127 v 0 c 2.472,11.916 15.657,22.721 36.174,29.646 v 0 c 34.776,11.737 63.082,-16.766 66.189,-20.048 v 0 c 8.074,-13.45 12.725,-29.178 12.725,-45.975 v 0 c 0,-20.665 -7.037,-39.716 -18.836,-54.89 v 0 c -2.124,2.923 -4.782,5.1 -7.854,6.361 v 0 c -11.145,4.578 -18.526,10.699 -20.251,16.793 v 0 c -2.157,7.621 -1.423,11.575 -1.423,11.578 v 0 c 0.184,0.826 -0.001,1.691 -0.503,2.373 v 0 c -0.501,0.682 -1.274,1.114 -2.117,1.184 v 0 c -0.159,0.013 -15.899,1.444 -17.865,11.006 v 0 c -2.161,10.524 3.78,20.202 3.838,20.293 v 0 c 0.552,0.877 0.598,1.979 0.126,2.9 v 0 c -0.473,0.923 -1.399,1.526 -2.433,1.59 v 0 c -0.127,0.008 -12.87,0.89 -18.316,9.968 v 0 c -5.751,9.585 -5.925,15.538 -5.926,15.57 v 0 c 0,1.048 -0.559,2.016 -1.467,2.54 v 0 c -0.907,0.523 -2.025,0.522 -2.932,-0.004 v 0 c -0.771,-0.445 -7.563,-4.857 -8.775,-22.175 v 0 c -1.118,-15.973 -1.916,-17.237 -4.511,-19.155 v 0 c -0.685,-0.506 -1.376,-0.978 -2.031,-1.426 v 0 c -2.665,-1.822 -4.967,-3.395 -5.257,-5.986 v 0 c -0.105,-0.942 0.043,-2.362 1.352,-3.771 v 0 c 1.814,-1.954 5.395,-3.217 7.846,-3.893 v 0 c 0.01,-1.572 0.032,-3.655 0.08,-5.965 v 0 c -3.316,-8.833 -6.002,-12.353 -12.166,-16.05 v 0 c -8.533,-5.121 -11.632,-17.159 -14.537,-31.198 v 0 c -0.878,-4.244 -2.935,-8.142 -6.108,-11.62 v 0 c -14.824,10.148 -26.457,24.629 -33.058,41.603 v 0 c 12.45,11.516 21.018,6.253 21.362,6.034 v 0 c 0.92,-0.624 2.113,-0.67 3.083,-0.125 v 0 c 0.968,0.545 1.544,1.595 1.487,2.705 v 0 c -0.008,0.168 -0.731,16.971 9.923,28.07 v 0 c 10.551,10.99 25.785,9.856 25.93,9.846 v 0 c 0.089,-0.009 0.178,-0.013 0.267,-0.013 v 0 c 1.156,0 2.209,0.688 2.677,1.76 m 8.344,-49.337 c -0.658,1.712 -1.122,9.212 -1.321,17.534 v 0 c 0.039,0.288 0.025,0.573 -0.02,0.851 v 0 c -0.059,2.727 -0.09,5.522 -0.09,8.217 v 0 c 0,1.396 -0.986,2.6 -2.357,2.873 v 0 c -2.111,0.421 -4.801,1.298 -6.243,2.117 v 0 c 0.602,0.476 1.436,1.046 2.114,1.509 v 0 c 0.712,0.486 1.463,1.001 2.207,1.551 v 0 c 5.043,3.727 5.757,7.502 6.875,23.46 v 0 c 0.436,6.232 1.643,10.383 2.848,13.071 v 0 c 0.965,-3.045 2.602,-6.983 5.378,-11.609 v 0 c 4.827,-8.045 13.501,-11.057 18.716,-12.17 v 0 c -1.95,-4.449 -4.393,-12.24 -2.646,-20.744 v 0 c 2.221,-10.808 14.526,-14.246 20.239,-15.268 v 0 c -0.007,-2.413 0.325,-6.183 1.769,-11.291 v 0 c 3.039,-10.73 16.132,-17.523 23.666,-20.617 v 0 c 2.485,-1.021 4.55,-2.92 6.17,-5.631 v 0 c -12.651,-14.177 -29.731,-24.322 -49.048,-28.231 v 0 c 1.929,7.599 -0.251,15.15 -1.898,19.298 v 0 c 6.199,2.272 10.862,6.226 13.311,11.364 v 0 c 2.276,4.771 2.373,10.104 0.264,14.63 v 0 c -3.654,7.847 -12.363,7.6 -24.258,6.396 v 0 c -2.885,-0.292 -5.221,-0.417 -7.117,-0.417 v 0 c -7.367,0 -8.088,1.883 -8.559,3.107 M 205.7,211.352 c 3.507,4.07 5.821,8.63 6.852,13.613 v 0 c 2.62,12.662 5.317,23.461 11.813,27.358 v 0 c 4.42,2.652 7.363,5.401 9.672,8.784 v 0 c 0.268,-3.624 0.655,-6.69 1.211,-8.136 v 0 c 2.656,-6.908 10.288,-7.578 21.736,-6.419 v 0 c 13.842,1.402 16.85,0.196 18.356,-3.037 v 0 c 1.367,-2.935 1.279,-6.447 -0.242,-9.634 v 0 c -2.104,-4.413 -6.642,-7.687 -12.777,-9.221 v 0 c -0.88,-0.22 -1.606,-0.837 -1.971,-1.667 v 0 c -0.364,-0.83 -0.323,-1.784 0.11,-2.581 v 0 c 0.063,-0.117 6.043,-11.336 1.971,-20.788 v 0 c -3.686,-0.464 -7.441,-0.704 -11.251,-0.704 v 0 c -16.591,0 -32.14,4.539 -45.48,12.432" /></g></g></g></g></g></svg>